solid OpenSCAD_Model
  facet normal -1 0 0
    outer loop
      vertex 0 0 0
      vertex 0 10 10
      vertex 0 10 0
    endloop
  endfacet
  facet normal -1 -0 0
    outer loop
      vertex 0 10 10
      vertex 0 0 0
      vertex 0 0 10
    endloop
  endfacet
  facet normal 0 0 1
    outer loop
      vertex 25 10 10
      vertex 21.6 5 10
      vertex 25 0 10
    endloop
  endfacet
  facet normal 0 0 1
    outer loop
      vertex 25 10 10
      vertex 21.5289 5.47161 10
      vertex 21.6 5 10
    endloop
  endfacet
  facet normal 0 0 1
    outer loop
      vertex 25 10 10
      vertex 21.322 5.90131 10
      vertex 21.5289 5.47161 10
    endloop
  endfacet
  facet normal 0 0 1
    outer loop
      vertex 25 10 10
      vertex 20.9976 6.25093 10
      vertex 21.322 5.90131 10
    endloop
  endfacet
  facet normal 0 0 1
    outer loop
      vertex 25 10 10
      vertex 20.5845 6.4894 10
      vertex 20.9976 6.25093 10
    endloop
  endfacet
  facet normal 0 0 1
    outer loop
      vertex 25 10 10
      vertex 20.1196 6.59553 10
      vertex 20.5845 6.4894 10
    endloop
  endfacet
  facet normal 0 0 1
    outer loop
      vertex 25 10 10
      vertex 19.644 6.55988 10
      vertex 20.1196 6.59553 10
    endloop
  endfacet
  facet normal 0 0 1
    outer loop
      vertex 10.5845 6.4894 10
      vertex 19.644 6.55988 10
      vertex 25 10 10
    endloop
  endfacet
  facet normal 0 0 1
    outer loop
      vertex 18.4179 5.23847 10
      vertex 11.6 5 10
      vertex 18.4179 4.76153 10
    endloop
  endfacet
  facet normal -0 0 1
    outer loop
      vertex 11.5289 5.47161 10
      vertex 18.4179 5.23847 10
      vertex 18.5584 5.69421 10
    endloop
  endfacet
  facet normal -0 0 1
    outer loop
      vertex 11.322 5.90131 10
      vertex 18.5584 5.69421 10
      vertex 18.8271 6.08828 10
    endloop
  endfacet
  facet normal -0 0 1
    outer loop
      vertex 10.9976 6.25093 10
      vertex 18.8271 6.08828 10
      vertex 19.2 6.38564 10
    endloop
  endfacet
  facet normal 0 0 1
    outer loop
      vertex 19.644 6.55988 10
      vertex 10.5845 6.4894 10
      vertex 19.2 6.38564 10
    endloop
  endfacet
  facet normal 0 0 1
    outer loop
      vertex 18.4179 5.23847 10
      vertex 11.5289 5.47161 10
      vertex 11.6 5 10
    endloop
  endfacet
  facet normal 0 0 1
    outer loop
      vertex 18.5584 5.69421 10
      vertex 11.322 5.90131 10
      vertex 11.5289 5.47161 10
    endloop
  endfacet
  facet normal 0 0 1
    outer loop
      vertex 18.8271 6.08828 10
      vertex 10.9976 6.25093 10
      vertex 11.322 5.90131 10
    endloop
  endfacet
  facet normal 0 0 1
    outer loop
      vertex 19.2 6.38564 10
      vertex 10.5845 6.4894 10
      vertex 10.9976 6.25093 10
    endloop
  endfacet
  facet normal 0 0 1
    outer loop
      vertex 25 10 10
      vertex 10.1196 6.59553 10
      vertex 10.5845 6.4894 10
    endloop
  endfacet
  facet normal -0 0 1
    outer loop
      vertex 0 10 10
      vertex 10.1196 6.59553 10
      vertex 25 10 10
    endloop
  endfacet
  facet normal 0 0 1
    outer loop
      vertex 8.41787 5.23847 10
      vertex 0 10 10
      vertex 8.41787 4.76153 10
    endloop
  endfacet
  facet normal 0 0 1
    outer loop
      vertex 8.55845 5.69421 10
      vertex 0 10 10
      vertex 8.41787 5.23847 10
    endloop
  endfacet
  facet normal 0 0 1
    outer loop
      vertex 8.82712 6.08828 10
      vertex 0 10 10
      vertex 8.55845 5.69421 10
    endloop
  endfacet
  facet normal 0 0 1
    outer loop
      vertex 9.2 6.38564 10
      vertex 0 10 10
      vertex 8.82712 6.08828 10
    endloop
  endfacet
  facet normal 0 0 1
    outer loop
      vertex 9.64397 6.55988 10
      vertex 0 10 10
      vertex 9.2 6.38564 10
    endloop
  endfacet
  facet normal 0 0 1
    outer loop
      vertex 10.1196 6.59553 10
      vertex 0 10 10
      vertex 9.64397 6.55988 10
    endloop
  endfacet
  facet normal -0 0 1
    outer loop
      vertex 21.5289 4.52839 10
      vertex 25 0 10
      vertex 21.6 5 10
    endloop
  endfacet
  facet normal -0 0 1
    outer loop
      vertex 21.322 4.09869 10
      vertex 25 0 10
      vertex 21.5289 4.52839 10
    endloop
  endfacet
  facet normal -0 0 1
    outer loop
      vertex 20.9976 3.74907 10
      vertex 25 0 10
      vertex 21.322 4.09869 10
    endloop
  endfacet
  facet normal -0 0 1
    outer loop
      vertex 20.5845 3.5106 10
      vertex 25 0 10
      vertex 20.9976 3.74907 10
    endloop
  endfacet
  facet normal -0 0 1
    outer loop
      vertex 20.1196 3.40447 10
      vertex 25 0 10
      vertex 20.5845 3.5106 10
    endloop
  endfacet
  facet normal 0 0 1
    outer loop
      vertex 19.644 3.44011 10
      vertex 25 0 10
      vertex 20.1196 3.40447 10
    endloop
  endfacet
  facet normal -0 0 1
    outer loop
      vertex 10.5845 3.5106 10
      vertex 19.644 3.44011 10
      vertex 19.2 3.61436 10
    endloop
  endfacet
  facet normal 0 0 1
    outer loop
      vertex 11.5289 4.52839 10
      vertex 18.4179 4.76153 10
      vertex 11.6 5 10
    endloop
  endfacet
  facet normal 0 0 1
    outer loop
      vertex 18.4179 4.76153 10
      vertex 11.5289 4.52839 10
      vertex 18.5584 4.30579 10
    endloop
  endfacet
  facet normal 0 0 1
    outer loop
      vertex 11.322 4.09869 10
      vertex 18.5584 4.30579 10
      vertex 11.5289 4.52839 10
    endloop
  endfacet
  facet normal 0 0 1
    outer loop
      vertex 18.5584 4.30579 10
      vertex 11.322 4.09869 10
      vertex 18.8271 3.91172 10
    endloop
  endfacet
  facet normal 0 0 1
    outer loop
      vertex 10.9976 3.74907 10
      vertex 18.8271 3.91172 10
      vertex 11.322 4.09869 10
    endloop
  endfacet
  facet normal 0 0 1
    outer loop
      vertex 18.8271 3.91172 10
      vertex 10.9976 3.74907 10
      vertex 19.2 3.61436 10
    endloop
  endfacet
  facet normal 0 0 1
    outer loop
      vertex 10.5845 3.5106 10
      vertex 19.2 3.61436 10
      vertex 10.9976 3.74907 10
    endloop
  endfacet
  facet normal 0 0 1
    outer loop
      vertex 19.644 3.44011 10
      vertex 10.5845 3.5106 10
      vertex 25 0 10
    endloop
  endfacet
  facet normal -0 0 1
    outer loop
      vertex 10.1196 3.40447 10
      vertex 25 0 10
      vertex 10.5845 3.5106 10
    endloop
  endfacet
  facet normal 0 0 1
    outer loop
      vertex 0 0 10
      vertex 10.1196 3.40447 10
      vertex 9.64397 3.44011 10
    endloop
  endfacet
  facet normal 0 0 1
    outer loop
      vertex 0 0 10
      vertex 8.41787 4.76153 10
      vertex 0 10 10
    endloop
  endfacet
  facet normal 0 0 1
    outer loop
      vertex 8.41787 4.76153 10
      vertex 0 0 10
      vertex 8.55845 4.30579 10
    endloop
  endfacet
  facet normal 0 0 1
    outer loop
      vertex 8.55845 4.30579 10
      vertex 0 0 10
      vertex 8.82712 3.91172 10
    endloop
  endfacet
  facet normal 0 0 1
    outer loop
      vertex 10.1196 3.40447 10
      vertex 0 0 10
      vertex 25 0 10
    endloop
  endfacet
  facet normal 0 0 1
    outer loop
      vertex 9.2 3.61436 10
      vertex 0 0 10
      vertex 9.64397 3.44011 10
    endloop
  endfacet
  facet normal 0 0 1
    outer loop
      vertex 8.82712 3.91172 10
      vertex 0 0 10
      vertex 9.2 3.61436 10
    endloop
  endfacet
  facet normal 1 -0 0
    outer loop
      vertex 25 0 10
      vertex 25 10 0
      vertex 25 10 10
    endloop
  endfacet
  facet normal 1 0 0
    outer loop
      vertex 25 10 0
      vertex 25 0 10
      vertex 25 0 0
    endloop
  endfacet
  facet normal 0 1 -0
    outer loop
      vertex 5.58455 10 6.4894
      vertex 0 10 10
      vertex 14.644 10 6.55988
    endloop
  endfacet
  facet normal 0 1 0
    outer loop
      vertex 0 10 10
      vertex 5.58455 10 6.4894
      vertex 5.11957 10 6.59553
    endloop
  endfacet
  facet normal 0 1 -0
    outer loop
      vertex 14.2 10 6.38564
      vertex 5.58455 10 6.4894
      vertex 14.644 10 6.55988
    endloop
  endfacet
  facet normal 0 1 0
    outer loop
      vertex 14.2 10 6.38564
      vertex 5.99758 10 6.25093
      vertex 5.58455 10 6.4894
    endloop
  endfacet
  facet normal 0 1 -0
    outer loop
      vertex 13.8271 10 6.08828
      vertex 5.99758 10 6.25093
      vertex 14.2 10 6.38564
    endloop
  endfacet
  facet normal 0 1 0
    outer loop
      vertex 13.8271 10 6.08828
      vertex 6.32198 10 5.90131
      vertex 5.99758 10 6.25093
    endloop
  endfacet
  facet normal 0 1 -0
    outer loop
      vertex 13.5584 10 5.69421
      vertex 6.32198 10 5.90131
      vertex 13.8271 10 6.08828
    endloop
  endfacet
  facet normal 0 1 0
    outer loop
      vertex 13.5584 10 5.69421
      vertex 6.52892 10 5.47161
      vertex 6.32198 10 5.90131
    endloop
  endfacet
  facet normal 0 1 -0
    outer loop
      vertex 13.4179 10 5.23847
      vertex 6.52892 10 5.47161
      vertex 13.5584 10 5.69421
    endloop
  endfacet
  facet normal 0 1 0
    outer loop
      vertex 13.4179 10 5.23847
      vertex 6.6 10 5
      vertex 6.52892 10 5.47161
    endloop
  endfacet
  facet normal 0 1 -0
    outer loop
      vertex 13.4179 10 4.76153
      vertex 6.6 10 5
      vertex 13.4179 10 5.23847
    endloop
  endfacet
  facet normal 0 1 0
    outer loop
      vertex 13.4179 10 4.76153
      vertex 6.52892 10 4.52839
      vertex 6.6 10 5
    endloop
  endfacet
  facet normal 0 1 0
    outer loop
      vertex 13.5584 10 4.30579
      vertex 6.52892 10 4.52839
      vertex 13.4179 10 4.76153
    endloop
  endfacet
  facet normal 0 1 0
    outer loop
      vertex 13.5584 10 4.30579
      vertex 6.32198 10 4.09869
      vertex 6.52892 10 4.52839
    endloop
  endfacet
  facet normal 0 1 0
    outer loop
      vertex 13.8271 10 3.91172
      vertex 6.32198 10 4.09869
      vertex 13.5584 10 4.30579
    endloop
  endfacet
  facet normal 0 1 0
    outer loop
      vertex 13.8271 10 3.91172
      vertex 5.99758 10 3.74907
      vertex 6.32198 10 4.09869
    endloop
  endfacet
  facet normal 0 1 0
    outer loop
      vertex 14.2 10 3.61436
      vertex 5.99758 10 3.74907
      vertex 13.8271 10 3.91172
    endloop
  endfacet
  facet normal 0 1 0
    outer loop
      vertex 14.2 10 3.61436
      vertex 5.58455 10 3.5106
      vertex 5.99758 10 3.74907
    endloop
  endfacet
  facet normal 0 1 0
    outer loop
      vertex 14.644 10 3.44011
      vertex 5.58455 10 3.5106
      vertex 14.2 10 3.61436
    endloop
  endfacet
  facet normal 0 1 0
    outer loop
      vertex 25 10 0
      vertex 14.644 10 3.44011
      vertex 15.1196 10 3.40447
    endloop
  endfacet
  facet normal 0 1 0
    outer loop
      vertex 14.644 10 3.44011
      vertex 0 10 0
      vertex 5.58455 10 3.5106
    endloop
  endfacet
  facet normal 0 1 0
    outer loop
      vertex 14.644 10 6.55988
      vertex 25 10 10
      vertex 15.1196 10 6.59553
    endloop
  endfacet
  facet normal 0 1 0
    outer loop
      vertex 25 10 10
      vertex 15.5845 10 6.4894
      vertex 15.1196 10 6.59553
    endloop
  endfacet
  facet normal 0 1 0
    outer loop
      vertex 25 10 10
      vertex 15.9976 10 6.25093
      vertex 15.5845 10 6.4894
    endloop
  endfacet
  facet normal 0 1 0
    outer loop
      vertex 25 10 10
      vertex 16.322 10 5.90131
      vertex 15.9976 10 6.25093
    endloop
  endfacet
  facet normal 0 1 0
    outer loop
      vertex 25 10 10
      vertex 16.5289 10 5.47161
      vertex 16.322 10 5.90131
    endloop
  endfacet
  facet normal 0 1 0
    outer loop
      vertex 25 10 10
      vertex 16.6 10 5
      vertex 16.5289 10 5.47161
    endloop
  endfacet
  facet normal 0 1 -0
    outer loop
      vertex 25 10 0
      vertex 16.6 10 5
      vertex 25 10 10
    endloop
  endfacet
  facet normal 0 1 0
    outer loop
      vertex 16.6 10 5
      vertex 25 10 0
      vertex 16.5289 10 4.52839
    endloop
  endfacet
  facet normal 0 1 0
    outer loop
      vertex 16.5289 10 4.52839
      vertex 25 10 0
      vertex 16.322 10 4.09869
    endloop
  endfacet
  facet normal 0 1 0
    outer loop
      vertex 14.644 10 3.44011
      vertex 25 10 0
      vertex 0 10 0
    endloop
  endfacet
  facet normal 0 1 0
    outer loop
      vertex 15.5845 10 3.5106
      vertex 25 10 0
      vertex 15.1196 10 3.40447
    endloop
  endfacet
  facet normal 0 1 0
    outer loop
      vertex 15.9976 10 3.74907
      vertex 25 10 0
      vertex 15.5845 10 3.5106
    endloop
  endfacet
  facet normal 0 1 0
    outer loop
      vertex 16.322 10 4.09869
      vertex 25 10 0
      vertex 15.9976 10 3.74907
    endloop
  endfacet
  facet normal 0 1 0
    outer loop
      vertex 25 10 10
      vertex 14.644 10 6.55988
      vertex 0 10 10
    endloop
  endfacet
  facet normal 0 1 -0
    outer loop
      vertex 4.64397 10 6.55988
      vertex 0 10 10
      vertex 5.11957 10 6.59553
    endloop
  endfacet
  facet normal 0 1 -0
    outer loop
      vertex 4.2 10 6.38564
      vertex 0 10 10
      vertex 4.64397 10 6.55988
    endloop
  endfacet
  facet normal 0 1 -0
    outer loop
      vertex 3.82712 10 6.08828
      vertex 0 10 10
      vertex 4.2 10 6.38564
    endloop
  endfacet
  facet normal 0 1 -0
    outer loop
      vertex 3.55845 10 5.69421
      vertex 0 10 10
      vertex 3.82712 10 6.08828
    endloop
  endfacet
  facet normal 0 1 -0
    outer loop
      vertex 3.41787 10 5.23847
      vertex 0 10 10
      vertex 3.55845 10 5.69421
    endloop
  endfacet
  facet normal 0 1 -0
    outer loop
      vertex 3.41787 10 4.76153
      vertex 0 10 10
      vertex 3.41787 10 5.23847
    endloop
  endfacet
  facet normal 0 1 0
    outer loop
      vertex 0 10 0
      vertex 3.41787 10 4.76153
      vertex 3.55845 10 4.30579
    endloop
  endfacet
  facet normal 0 1 0
    outer loop
      vertex 5.58455 10 3.5106
      vertex 0 10 0
      vertex 5.11957 10 3.40447
    endloop
  endfacet
  facet normal 0 1 0
    outer loop
      vertex 3.41787 10 4.76153
      vertex 0 10 0
      vertex 0 10 10
    endloop
  endfacet
  facet normal 0 1 0
    outer loop
      vertex 3.82712 10 3.91172
      vertex 0 10 0
      vertex 3.55845 10 4.30579
    endloop
  endfacet
  facet normal 0 1 0
    outer loop
      vertex 4.2 10 3.61436
      vertex 0 10 0
      vertex 3.82712 10 3.91172
    endloop
  endfacet
  facet normal 0 1 0
    outer loop
      vertex 4.64397 10 3.44011
      vertex 0 10 0
      vertex 4.2 10 3.61436
    endloop
  endfacet
  facet normal 0 1 0
    outer loop
      vertex 5.11957 10 3.40447
      vertex 0 10 0
      vertex 4.64397 10 3.44011
    endloop
  endfacet
  facet normal 0 0 -1
    outer loop
      vertex 25 0 0
      vertex 23.2 5 0
      vertex 25 10 0
    endloop
  endfacet
  facet normal 0 0 -1
    outer loop
      vertex 25 0 0
      vertex 21.6 2.22872 0
      vertex 23.2 5 0
    endloop
  endfacet
  facet normal 0 0 -1
    outer loop
      vertex 25 0 0
      vertex 18.4 2.22872 0
      vertex 21.6 2.22872 0
    endloop
  endfacet
  facet normal 0 0 -1
    outer loop
      vertex 18.4 2.22872 0
      vertex 13.2 5 0
      vertex 16.8 5 0
    endloop
  endfacet
  facet normal 0 0 -1
    outer loop
      vertex 18.4 2.22872 0
      vertex 11.6 2.22872 0
      vertex 13.2 5 0
    endloop
  endfacet
  facet normal 0 0 -1
    outer loop
      vertex 25 0 0
      vertex 11.6 2.22872 0
      vertex 18.4 2.22872 0
    endloop
  endfacet
  facet normal 0 0 -1
    outer loop
      vertex 0 0 0
      vertex 11.6 2.22872 0
      vertex 25 0 0
    endloop
  endfacet
  facet normal -0 0 -1
    outer loop
      vertex 8.4 2.22872 0
      vertex 0 0 0
      vertex 6.8 5 0
    endloop
  endfacet
  facet normal -0 0 -1
    outer loop
      vertex 11.6 2.22872 0
      vertex 0 0 0
      vertex 8.4 2.22872 0
    endloop
  endfacet
  facet normal 0 0 -1
    outer loop
      vertex 21.6 7.77128 0
      vertex 25 10 0
      vertex 23.2 5 0
    endloop
  endfacet
  facet normal 0 0 -1
    outer loop
      vertex 18.4 7.77128 0
      vertex 25 10 0
      vertex 21.6 7.77128 0
    endloop
  endfacet
  facet normal 0 0 -1
    outer loop
      vertex 13.2 5 0
      vertex 18.4 7.77128 0
      vertex 16.8 5 0
    endloop
  endfacet
  facet normal 0 0 -1
    outer loop
      vertex 11.6 7.77128 0
      vertex 18.4 7.77128 0
      vertex 13.2 5 0
    endloop
  endfacet
  facet normal 0 0 -1
    outer loop
      vertex 11.6 7.77128 0
      vertex 25 10 0
      vertex 18.4 7.77128 0
    endloop
  endfacet
  facet normal 0 0 -1
    outer loop
      vertex 0 10 0
      vertex 11.6 7.77128 0
      vertex 8.4 7.77128 0
    endloop
  endfacet
  facet normal 0 0 -1
    outer loop
      vertex 0 10 0
      vertex 6.8 5 0
      vertex 0 0 0
    endloop
  endfacet
  facet normal 0 0 -1
    outer loop
      vertex 11.6 7.77128 0
      vertex 0 10 0
      vertex 25 10 0
    endloop
  endfacet
  facet normal 0 0 -1
    outer loop
      vertex 6.8 5 0
      vertex 0 10 0
      vertex 8.4 7.77128 0
    endloop
  endfacet
  facet normal 0 -1 0
    outer loop
      vertex 8.2 0 5
      vertex 13.4 0 7.77128
      vertex 6.6 0 7.77128
    endloop
  endfacet
  facet normal 0 -1 0
    outer loop
      vertex 8.2 0 5
      vertex 11.8 0 5
      vertex 13.4 0 7.77128
    endloop
  endfacet
  facet normal 0 -1 0
    outer loop
      vertex 6.6 0 2.22872
      vertex 11.8 0 5
      vertex 8.2 0 5
    endloop
  endfacet
  facet normal 0 -1 -0
    outer loop
      vertex 11.8 0 5
      vertex 6.6 0 2.22872
      vertex 13.4 0 2.22872
    endloop
  endfacet
  facet normal 0 -1 0
    outer loop
      vertex 6.6 0 7.77128
      vertex 0 0 10
      vertex 3.4 0 7.77128
    endloop
  endfacet
  facet normal 0 -1 0
    outer loop
      vertex 0 0 10
      vertex 1.8 0 5
      vertex 3.4 0 7.77128
    endloop
  endfacet
  facet normal 0 -1 0
    outer loop
      vertex 0 0 0
      vertex 6.6 0 2.22872
      vertex 3.4 0 2.22872
    endloop
  endfacet
  facet normal 0 -1 -0
    outer loop
      vertex 6.6 0 2.22872
      vertex 0 0 0
      vertex 13.4 0 2.22872
    endloop
  endfacet
  facet normal 0 -1 0
    outer loop
      vertex 25 0 0
      vertex 13.4 0 2.22872
      vertex 0 0 0
    endloop
  endfacet
  facet normal 0 -1 -0
    outer loop
      vertex 1.8 0 5
      vertex 0 0 0
      vertex 3.4 0 2.22872
    endloop
  endfacet
  facet normal 0 -1 0
    outer loop
      vertex 0 0 0
      vertex 1.8 0 5
      vertex 0 0 10
    endloop
  endfacet
  facet normal 0 -1 0
    outer loop
      vertex 13.4 0 7.77128
      vertex 0 0 10
      vertex 6.6 0 7.77128
    endloop
  endfacet
  facet normal 0 -1 0
    outer loop
      vertex 0 0 10
      vertex 13.4 0 7.77128
      vertex 25 0 10
    endloop
  endfacet
  facet normal 0 -1 0
    outer loop
      vertex 16.6 0 7.77128
      vertex 25 0 10
      vertex 13.4 0 7.77128
    endloop
  endfacet
  facet normal 0 -1 0
    outer loop
      vertex 18.2 0 5
      vertex 25 0 10
      vertex 16.6 0 7.77128
    endloop
  endfacet
  facet normal 0 -1 0
    outer loop
      vertex 25 0 0
      vertex 18.2 0 5
      vertex 16.6 0 2.22872
    endloop
  endfacet
  facet normal 0 -1 0
    outer loop
      vertex 18.2 0 5
      vertex 25 0 0
      vertex 25 0 10
    endloop
  endfacet
  facet normal 0 -1 0
    outer loop
      vertex 13.4 0 2.22872
      vertex 25 0 0
      vertex 16.6 0 2.22872
    endloop
  endfacet
  facet normal -0.866025 0 -0.5
    outer loop
      vertex 8.2 0 5
      vertex 6.6 2 7.77128
      vertex 8.2 2 5
    endloop
  endfacet
  facet normal -0.866025 -0 -0.5
    outer loop
      vertex 6.6 2 7.77128
      vertex 8.2 0 5
      vertex 6.6 0 7.77128
    endloop
  endfacet
  facet normal -0 0 1
    outer loop
      vertex 3.4 2 2.22872
      vertex 6.6 0 2.22872
      vertex 6.6 2 2.22872
    endloop
  endfacet
  facet normal 0 0 1
    outer loop
      vertex 6.6 0 2.22872
      vertex 3.4 2 2.22872
      vertex 3.4 0 2.22872
    endloop
  endfacet
  facet normal 0 0 -1
    outer loop
      vertex 3.4 0 7.77128
      vertex 6.6 2 7.77128
      vertex 6.6 0 7.77128
    endloop
  endfacet
  facet normal -0 0 -1
    outer loop
      vertex 6.6 2 7.77128
      vertex 3.4 0 7.77128
      vertex 3.4 2 7.77128
    endloop
  endfacet
  facet normal 0.866025 0 -0.5
    outer loop
      vertex 3.4 0 7.77128
      vertex 1.8 2 5
      vertex 3.4 2 7.77128
    endloop
  endfacet
  facet normal 0.866025 0 -0.5
    outer loop
      vertex 1.8 2 5
      vertex 3.4 0 7.77128
      vertex 1.8 0 5
    endloop
  endfacet
  facet normal 0 -1 4.99896e-007
    outer loop
      vertex 1.8 2 5
      vertex 3.41787 2 4.76153
      vertex 3.41787 2 5
    endloop
  endfacet
  facet normal -3.68017e-008 -1 2.50217e-007
    outer loop
      vertex 1.8 2 5
      vertex 3.55845 2 4.30579
      vertex 3.41787 2 4.76153
    endloop
  endfacet
  facet normal 3.53411e-010 -1 3.44332e-007
    outer loop
      vertex 3.4 2 2.22872
      vertex 3.55845 2 4.30579
      vertex 1.8 2 5
    endloop
  endfacet
  facet normal 5.51983e-008 -1 3.40148e-007
    outer loop
      vertex 3.55845 2 4.30579
      vertex 3.4 2 2.22872
      vertex 3.82712 2 3.91172
    endloop
  endfacet
  facet normal 2.05429e-008 -1 2.74124e-007
    outer loop
      vertex 4.64397 2 3.44011
      vertex 3.4 2 2.22872
      vertex 5.11957 2 3.40447
    endloop
  endfacet
  facet normal -1.08797e-007 -1 4.06941e-007
    outer loop
      vertex 4.2 2 3.61436
      vertex 3.4 2 2.22872
      vertex 4.64397 2 3.44011
    endloop
  endfacet
  facet normal -3.09936e-008 -1 3.62022e-007
    outer loop
      vertex 3.82712 2 3.91172
      vertex 3.4 2 2.22872
      vertex 4.2 2 3.61436
    endloop
  endfacet
  facet normal 0 -1 2.52771e-007
    outer loop
      vertex 6.52892 2 4.52839
      vertex 8.2 2 5
      vertex 6.6 2 5
    endloop
  endfacet
  facet normal -9.86589e-008 -1 6.02356e-007
    outer loop
      vertex 6.32198 2 4.09869
      vertex 8.2 2 5
      vertex 6.52892 2 4.52839
    endloop
  endfacet
  facet normal 2.06435e-008 -1 3.21816e-007
    outer loop
      vertex 6.6 2 2.22872
      vertex 6.32198 2 4.09869
      vertex 5.99758 2 3.74907
    endloop
  endfacet
  facet normal -1.47365e-007 -1 2.55245e-007
    outer loop
      vertex 6.6 2 2.22872
      vertex 5.99758 2 3.74907
      vertex 5.58455 2 3.5106
    endloop
  endfacet
  facet normal 0 -1 3.04169e-007
    outer loop
      vertex 6.6 2 2.22872
      vertex 5.11957 2 3.40447
      vertex 3.4 2 2.22872
    endloop
  endfacet
  facet normal 1.45218e-007 -1 4.87017e-007
    outer loop
      vertex 5.11957 2 3.40447
      vertex 6.6 2 2.22872
      vertex 5.58455 2 3.5106
    endloop
  endfacet
  facet normal 3.49586e-008 -1 3.23944e-007
    outer loop
      vertex 6.32198 2 4.09869
      vertex 6.6 2 2.22872
      vertex 8.2 2 5
    endloop
  endfacet
  facet normal 0 -1 0
    outer loop
      vertex 3.4 2 7.77128
      vertex 5.11957 2 6.59553
      vertex 6.6 2 7.77128
    endloop
  endfacet
  facet normal 0 -1 0
    outer loop
      vertex 3.4 2 7.77128
      vertex 4.64397 2 6.55988
      vertex 5.11957 2 6.59553
    endloop
  endfacet
  facet normal 0 -1 0
    outer loop
      vertex 3.4 2 7.77128
      vertex 4.2 2 6.38564
      vertex 4.64397 2 6.55988
    endloop
  endfacet
  facet normal 0 -1 0
    outer loop
      vertex 3.4 2 7.77128
      vertex 3.82712 2 6.08828
      vertex 4.2 2 6.38564
    endloop
  endfacet
  facet normal 0 -1 0
    outer loop
      vertex 3.4 2 7.77128
      vertex 3.55845 2 5.69421
      vertex 3.82712 2 6.08828
    endloop
  endfacet
  facet normal 0 -1 0
    outer loop
      vertex 1.8 2 5
      vertex 3.55845 2 5.69421
      vertex 3.4 2 7.77128
    endloop
  endfacet
  facet normal 0 -1 0
    outer loop
      vertex 3.55845 2 5.69421
      vertex 1.8 2 5
      vertex 3.41787 2 5.23847
    endloop
  endfacet
  facet normal 0 -1 -0
    outer loop
      vertex 3.41787 2 5.23847
      vertex 1.8 2 5
      vertex 3.41787 2 5
    endloop
  endfacet
  facet normal 0 -1 0
    outer loop
      vertex 5.58455 2 6.4894
      vertex 6.6 2 7.77128
      vertex 5.11957 2 6.59553
    endloop
  endfacet
  facet normal 0 -1 0
    outer loop
      vertex 5.99758 2 6.25093
      vertex 6.6 2 7.77128
      vertex 5.58455 2 6.4894
    endloop
  endfacet
  facet normal 0 -1 0
    outer loop
      vertex 6.32198 2 5.90131
      vertex 6.6 2 7.77128
      vertex 5.99758 2 6.25093
    endloop
  endfacet
  facet normal 0 -1 0
    outer loop
      vertex 8.2 2 5
      vertex 6.32198 2 5.90131
      vertex 6.52892 2 5.47161
    endloop
  endfacet
  facet normal 0 -1 0
    outer loop
      vertex 8.2 2 5
      vertex 6.52892 2 5.47161
      vertex 6.6 2 5
    endloop
  endfacet
  facet normal 0 -1 0
    outer loop
      vertex 6.32198 2 5.90131
      vertex 8.2 2 5
      vertex 6.6 2 7.77128
    endloop
  endfacet
  facet normal 0.866025 -0 0.5
    outer loop
      vertex 1.8 0 5
      vertex 3.4 2 2.22872
      vertex 1.8 2 5
    endloop
  endfacet
  facet normal 0.866025 0 0.5
    outer loop
      vertex 3.4 2 2.22872
      vertex 1.8 0 5
      vertex 3.4 0 2.22872
    endloop
  endfacet
  facet normal -0.866025 0 0.5
    outer loop
      vertex 6.6 0 2.22872
      vertex 8.2 2 5
      vertex 6.6 2 2.22872
    endloop
  endfacet
  facet normal -0.866025 0 0.5
    outer loop
      vertex 8.2 2 5
      vertex 6.6 0 2.22872
      vertex 8.2 0 5
    endloop
  endfacet
  facet normal -0.866025 0 -0.500001
    outer loop
      vertex 18.2 0 5
      vertex 16.6 2 7.77128
      vertex 18.2 2 5
    endloop
  endfacet
  facet normal -0.866025 -0 -0.500001
    outer loop
      vertex 16.6 2 7.77128
      vertex 18.2 0 5
      vertex 16.6 0 7.77128
    endloop
  endfacet
  facet normal -0 0 1
    outer loop
      vertex 13.4 2 2.22872
      vertex 16.6 0 2.22872
      vertex 16.6 2 2.22872
    endloop
  endfacet
  facet normal 0 0 1
    outer loop
      vertex 16.6 0 2.22872
      vertex 13.4 2 2.22872
      vertex 13.4 0 2.22872
    endloop
  endfacet
  facet normal 0 0 -1
    outer loop
      vertex 13.4 0 7.77128
      vertex 16.6 2 7.77128
      vertex 16.6 0 7.77128
    endloop
  endfacet
  facet normal -0 0 -1
    outer loop
      vertex 16.6 2 7.77128
      vertex 13.4 0 7.77128
      vertex 13.4 2 7.77128
    endloop
  endfacet
  facet normal 0.866025 0 -0.5
    outer loop
      vertex 13.4 0 7.77128
      vertex 11.8 2 5
      vertex 13.4 2 7.77128
    endloop
  endfacet
  facet normal 0.866025 0 -0.5
    outer loop
      vertex 11.8 2 5
      vertex 13.4 0 7.77128
      vertex 11.8 0 5
    endloop
  endfacet
  facet normal 0 -1 4.99896e-007
    outer loop
      vertex 11.8 2 5
      vertex 13.4179 2 4.76153
      vertex 13.4179 2 5
    endloop
  endfacet
  facet normal -3.68017e-008 -1 2.50217e-007
    outer loop
      vertex 11.8 2 5
      vertex 13.5584 2 4.30579
      vertex 13.4179 2 4.76153
    endloop
  endfacet
  facet normal 3.53411e-010 -1 3.44332e-007
    outer loop
      vertex 13.4 2 2.22872
      vertex 13.5584 2 4.30579
      vertex 11.8 2 5
    endloop
  endfacet
  facet normal 5.51983e-008 -1 3.40148e-007
    outer loop
      vertex 13.5584 2 4.30579
      vertex 13.4 2 2.22872
      vertex 13.8271 2 3.91172
    endloop
  endfacet
  facet normal 2.05429e-008 -1 2.74124e-007
    outer loop
      vertex 14.644 2 3.44011
      vertex 13.4 2 2.22872
      vertex 15.1196 2 3.40447
    endloop
  endfacet
  facet normal -1.08797e-007 -1 4.06941e-007
    outer loop
      vertex 14.2 2 3.61436
      vertex 13.4 2 2.22872
      vertex 14.644 2 3.44011
    endloop
  endfacet
  facet normal -3.09936e-008 -1 3.62022e-007
    outer loop
      vertex 13.8271 2 3.91172
      vertex 13.4 2 2.22872
      vertex 14.2 2 3.61436
    endloop
  endfacet
  facet normal 0 -1 2.52771e-007
    outer loop
      vertex 16.5289 2 4.52839
      vertex 18.2 2 5
      vertex 16.6 2 5
    endloop
  endfacet
  facet normal -9.86587e-008 -1 6.02356e-007
    outer loop
      vertex 16.322 2 4.09869
      vertex 18.2 2 5
      vertex 16.5289 2 4.52839
    endloop
  endfacet
  facet normal 2.06435e-008 -1 3.21816e-007
    outer loop
      vertex 16.6 2 2.22872
      vertex 16.322 2 4.09869
      vertex 15.9976 2 3.74907
    endloop
  endfacet
  facet normal -1.47365e-007 -1 2.55245e-007
    outer loop
      vertex 16.6 2 2.22872
      vertex 15.9976 2 3.74907
      vertex 15.5845 2 3.5106
    endloop
  endfacet
  facet normal 0 -1 3.04169e-007
    outer loop
      vertex 16.6 2 2.22872
      vertex 15.1196 2 3.40447
      vertex 13.4 2 2.22872
    endloop
  endfacet
  facet normal 1.45218e-007 -1 4.87017e-007
    outer loop
      vertex 15.1196 2 3.40447
      vertex 16.6 2 2.22872
      vertex 15.5845 2 3.5106
    endloop
  endfacet
  facet normal 3.49586e-008 -1 3.23944e-007
    outer loop
      vertex 16.322 2 4.09869
      vertex 16.6 2 2.22872
      vertex 18.2 2 5
    endloop
  endfacet
  facet normal 0 -1 0
    outer loop
      vertex 13.4 2 7.77128
      vertex 15.1196 2 6.59553
      vertex 16.6 2 7.77128
    endloop
  endfacet
  facet normal 0 -1 0
    outer loop
      vertex 13.4 2 7.77128
      vertex 14.644 2 6.55988
      vertex 15.1196 2 6.59553
    endloop
  endfacet
  facet normal 0 -1 0
    outer loop
      vertex 13.4 2 7.77128
      vertex 14.2 2 6.38564
      vertex 14.644 2 6.55988
    endloop
  endfacet
  facet normal 0 -1 0
    outer loop
      vertex 13.4 2 7.77128
      vertex 13.8271 2 6.08828
      vertex 14.2 2 6.38564
    endloop
  endfacet
  facet normal 0 -1 0
    outer loop
      vertex 13.4 2 7.77128
      vertex 13.5584 2 5.69421
      vertex 13.8271 2 6.08828
    endloop
  endfacet
  facet normal 0 -1 0
    outer loop
      vertex 11.8 2 5
      vertex 13.5584 2 5.69421
      vertex 13.4 2 7.77128
    endloop
  endfacet
  facet normal 0 -1 0
    outer loop
      vertex 13.5584 2 5.69421
      vertex 11.8 2 5
      vertex 13.4179 2 5.23847
    endloop
  endfacet
  facet normal 0 -1 -0
    outer loop
      vertex 13.4179 2 5.23847
      vertex 11.8 2 5
      vertex 13.4179 2 5
    endloop
  endfacet
  facet normal 0 -1 0
    outer loop
      vertex 15.5845 2 6.4894
      vertex 16.6 2 7.77128
      vertex 15.1196 2 6.59553
    endloop
  endfacet
  facet normal 0 -1 0
    outer loop
      vertex 15.9976 2 6.25093
      vertex 16.6 2 7.77128
      vertex 15.5845 2 6.4894
    endloop
  endfacet
  facet normal 0 -1 0
    outer loop
      vertex 16.322 2 5.90131
      vertex 16.6 2 7.77128
      vertex 15.9976 2 6.25093
    endloop
  endfacet
  facet normal 0 -1 0
    outer loop
      vertex 18.2 2 5
      vertex 16.322 2 5.90131
      vertex 16.5289 2 5.47161
    endloop
  endfacet
  facet normal 0 -1 0
    outer loop
      vertex 18.2 2 5
      vertex 16.5289 2 5.47161
      vertex 16.6 2 5
    endloop
  endfacet
  facet normal 0 -1 0
    outer loop
      vertex 16.322 2 5.90131
      vertex 18.2 2 5
      vertex 16.6 2 7.77128
    endloop
  endfacet
  facet normal 0.866025 -0 0.5
    outer loop
      vertex 11.8 0 5
      vertex 13.4 2 2.22872
      vertex 11.8 2 5
    endloop
  endfacet
  facet normal 0.866025 0 0.5
    outer loop
      vertex 13.4 2 2.22872
      vertex 11.8 0 5
      vertex 13.4 0 2.22872
    endloop
  endfacet
  facet normal -0.866025 0 0.5
    outer loop
      vertex 16.6 0 2.22872
      vertex 18.2 2 5
      vertex 16.6 2 2.22872
    endloop
  endfacet
  facet normal -0.866025 0 0.5
    outer loop
      vertex 18.2 2 5
      vertex 16.6 0 2.22872
      vertex 18.2 0 5
    endloop
  endfacet
  facet normal -0.866025 -0.5 0
    outer loop
      vertex 13.2 5 0
      vertex 11.6 7.77128 2
      vertex 11.6 7.77128 0
    endloop
  endfacet
  facet normal -0.866025 -0.5 0
    outer loop
      vertex 11.6 7.77128 2
      vertex 13.2 5 0
      vertex 13.2 5 2
    endloop
  endfacet
  facet normal 0 1 -0
    outer loop
      vertex 11.6 2.22872 0
      vertex 8.4 2.22872 2
      vertex 11.6 2.22872 2
    endloop
  endfacet
  facet normal 0 1 0
    outer loop
      vertex 8.4 2.22872 2
      vertex 11.6 2.22872 0
      vertex 8.4 2.22872 0
    endloop
  endfacet
  facet normal 0.866025 -0.5 0
    outer loop
      vertex 6.8 5 2
      vertex 8.4 7.77128 0
      vertex 8.4 7.77128 2
    endloop
  endfacet
  facet normal 0.866025 -0.5 0
    outer loop
      vertex 8.4 7.77128 0
      vertex 6.8 5 2
      vertex 6.8 5 0
    endloop
  endfacet
  facet normal 0 -1 0
    outer loop
      vertex 8.4 7.77128 0
      vertex 11.6 7.77128 2
      vertex 8.4 7.77128 2
    endloop
  endfacet
  facet normal 0 -1 -0
    outer loop
      vertex 11.6 7.77128 2
      vertex 8.4 7.77128 0
      vertex 11.6 7.77128 0
    endloop
  endfacet
  facet normal 0.866025 0.5 0
    outer loop
      vertex 8.4 2.22872 2
      vertex 6.8 5 0
      vertex 6.8 5 2
    endloop
  endfacet
  facet normal 0.866025 0.5 0
    outer loop
      vertex 6.8 5 0
      vertex 8.4 2.22872 2
      vertex 8.4 2.22872 0
    endloop
  endfacet
  facet normal -0 0 -1
    outer loop
      vertex 13.2 5 2
      vertex 11.5289 4.52839 2
      vertex 11.6 5 2
    endloop
  endfacet
  facet normal 0 0 -1
    outer loop
      vertex 13.2 5 2
      vertex 11.322 4.09869 2
      vertex 11.5289 4.52839 2
    endloop
  endfacet
  facet normal 0 0 -1
    outer loop
      vertex 11.6 2.22872 2
      vertex 10.9976 3.74907 2
      vertex 11.322 4.09869 2
    endloop
  endfacet
  facet normal 0 0 -1
    outer loop
      vertex 11.6 2.22872 2
      vertex 10.5845 3.5106 2
      vertex 10.9976 3.74907 2
    endloop
  endfacet
  facet normal 0 0 -1
    outer loop
      vertex 11.6 2.22872 2
      vertex 10.1196 3.40447 2
      vertex 10.5845 3.5106 2
    endloop
  endfacet
  facet normal 0 0 -1
    outer loop
      vertex 8.4 2.22872 2
      vertex 10.1196 3.40447 2
      vertex 11.6 2.22872 2
    endloop
  endfacet
  facet normal -0 0 -1
    outer loop
      vertex 10.1196 3.40447 2
      vertex 8.4 2.22872 2
      vertex 9.64397 3.44011 2
    endloop
  endfacet
  facet normal 0 0 -1
    outer loop
      vertex 8.55845 4.30579 2
      vertex 6.8 5 2
      vertex 8.41787 4.76153 2
    endloop
  endfacet
  facet normal 0 0 -1
    outer loop
      vertex 6.8 5 2
      vertex 8.55845 4.30579 2
      vertex 8.4 2.22872 2
    endloop
  endfacet
  facet normal -0 0 -1
    outer loop
      vertex 8.82712 3.91172 2
      vertex 8.4 2.22872 2
      vertex 8.55845 4.30579 2
    endloop
  endfacet
  facet normal -0 0 -1
    outer loop
      vertex 9.2 3.61436 2
      vertex 8.4 2.22872 2
      vertex 8.82712 3.91172 2
    endloop
  endfacet
  facet normal -0 0 -1
    outer loop
      vertex 9.64397 3.44011 2
      vertex 8.4 2.22872 2
      vertex 9.2 3.61436 2
    endloop
  endfacet
  facet normal 0 0 -1
    outer loop
      vertex 11.322 4.09869 2
      vertex 13.2 5 2
      vertex 11.6 2.22872 2
    endloop
  endfacet
  facet normal 0 0 -1
    outer loop
      vertex 11.5289 5.47161 2
      vertex 13.2 5 2
      vertex 11.6 5 2
    endloop
  endfacet
  facet normal 0 0 -1
    outer loop
      vertex 11.322 5.90131 2
      vertex 13.2 5 2
      vertex 11.5289 5.47161 2
    endloop
  endfacet
  facet normal 0 0 -1
    outer loop
      vertex 13.2 5 2
      vertex 11.322 5.90131 2
      vertex 11.6 7.77128 2
    endloop
  endfacet
  facet normal 0 0 -1
    outer loop
      vertex 10.9976 6.25093 2
      vertex 11.6 7.77128 2
      vertex 11.322 5.90131 2
    endloop
  endfacet
  facet normal 0 0 -1
    outer loop
      vertex 10.5845 6.4894 2
      vertex 11.6 7.77128 2
      vertex 10.9976 6.25093 2
    endloop
  endfacet
  facet normal 0 0 -1
    outer loop
      vertex 10.1196 6.59553 2
      vertex 11.6 7.77128 2
      vertex 10.5845 6.4894 2
    endloop
  endfacet
  facet normal 0 0 -1
    outer loop
      vertex 8.4 7.77128 2
      vertex 10.1196 6.59553 2
      vertex 9.64397 6.55988 2
    endloop
  endfacet
  facet normal 0 0 -1
    outer loop
      vertex 8.4 7.77128 2
      vertex 9.64397 6.55988 2
      vertex 9.2 6.38564 2
    endloop
  endfacet
  facet normal 0 0 -1
    outer loop
      vertex 10.1196 6.59553 2
      vertex 8.4 7.77128 2
      vertex 11.6 7.77128 2
    endloop
  endfacet
  facet normal 0 0 -1
    outer loop
      vertex 8.82712 6.08828 2
      vertex 8.4 7.77128 2
      vertex 9.2 6.38564 2
    endloop
  endfacet
  facet normal 0 0 -1
    outer loop
      vertex 8.55845 5.69421 2
      vertex 8.4 7.77128 2
      vertex 8.82712 6.08828 2
    endloop
  endfacet
  facet normal 0 0 -1
    outer loop
      vertex 6.8 5 2
      vertex 8.55845 5.69421 2
      vertex 8.41787 5.23847 2
    endloop
  endfacet
  facet normal 0 0 -1
    outer loop
      vertex 8.41787 4.76153 2
      vertex 6.8 5 2
      vertex 8.41787 5.23847 2
    endloop
  endfacet
  facet normal -0 0 -1
    outer loop
      vertex 8.55845 5.69421 2
      vertex 6.8 5 2
      vertex 8.4 7.77128 2
    endloop
  endfacet
  facet normal -0.866025 0.5 0
    outer loop
      vertex 11.6 2.22872 0
      vertex 13.2 5 2
      vertex 13.2 5 0
    endloop
  endfacet
  facet normal -0.866025 0.5 0
    outer loop
      vertex 13.2 5 2
      vertex 11.6 2.22872 0
      vertex 11.6 2.22872 2
    endloop
  endfacet
  facet normal -0.866025 -0.500001 0
    outer loop
      vertex 23.2 5 0
      vertex 21.6 7.77128 2
      vertex 21.6 7.77128 0
    endloop
  endfacet
  facet normal -0.866025 -0.500001 0
    outer loop
      vertex 21.6 7.77128 2
      vertex 23.2 5 0
      vertex 23.2 5 2
    endloop
  endfacet
  facet normal 0.866025 -0.5 0
    outer loop
      vertex 16.8 5 2
      vertex 18.4 7.77128 0
      vertex 18.4 7.77128 2
    endloop
  endfacet
  facet normal 0.866025 -0.5 0
    outer loop
      vertex 18.4 7.77128 0
      vertex 16.8 5 2
      vertex 16.8 5 0
    endloop
  endfacet
  facet normal 0 -1 0
    outer loop
      vertex 18.4 7.77128 0
      vertex 21.6 7.77128 2
      vertex 18.4 7.77128 2
    endloop
  endfacet
  facet normal 0 -1 -0
    outer loop
      vertex 21.6 7.77128 2
      vertex 18.4 7.77128 0
      vertex 21.6 7.77128 0
    endloop
  endfacet
  facet normal 0.866025 0.5 0
    outer loop
      vertex 18.4 2.22872 2
      vertex 16.8 5 0
      vertex 16.8 5 2
    endloop
  endfacet
  facet normal 0.866025 0.5 0
    outer loop
      vertex 16.8 5 0
      vertex 18.4 2.22872 2
      vertex 18.4 2.22872 0
    endloop
  endfacet
  facet normal -0 0 -1
    outer loop
      vertex 23.2 5 2
      vertex 21.5289 4.52839 2
      vertex 21.6 5 2
    endloop
  endfacet
  facet normal 0 0 -1
    outer loop
      vertex 23.2 5 2
      vertex 21.322 4.09869 2
      vertex 21.5289 4.52839 2
    endloop
  endfacet
  facet normal 0 0 -1
    outer loop
      vertex 21.6 2.22872 2
      vertex 20.9976 3.74907 2
      vertex 21.322 4.09869 2
    endloop
  endfacet
  facet normal 0 0 -1
    outer loop
      vertex 21.6 2.22872 2
      vertex 20.5845 3.5106 2
      vertex 20.9976 3.74907 2
    endloop
  endfacet
  facet normal 0 0 -1
    outer loop
      vertex 21.6 2.22872 2
      vertex 20.1196 3.40447 2
      vertex 20.5845 3.5106 2
    endloop
  endfacet
  facet normal 0 0 -1
    outer loop
      vertex 18.4 2.22872 2
      vertex 20.1196 3.40447 2
      vertex 21.6 2.22872 2
    endloop
  endfacet
  facet normal -0 0 -1
    outer loop
      vertex 20.1196 3.40447 2
      vertex 18.4 2.22872 2
      vertex 19.644 3.44011 2
    endloop
  endfacet
  facet normal 0 0 -1
    outer loop
      vertex 18.5584 4.30579 2
      vertex 16.8 5 2
      vertex 18.4179 4.76153 2
    endloop
  endfacet
  facet normal 0 0 -1
    outer loop
      vertex 16.8 5 2
      vertex 18.5584 4.30579 2
      vertex 18.4 2.22872 2
    endloop
  endfacet
  facet normal -0 0 -1
    outer loop
      vertex 18.8271 3.91172 2
      vertex 18.4 2.22872 2
      vertex 18.5584 4.30579 2
    endloop
  endfacet
  facet normal -0 0 -1
    outer loop
      vertex 19.2 3.61436 2
      vertex 18.4 2.22872 2
      vertex 18.8271 3.91172 2
    endloop
  endfacet
  facet normal -0 0 -1
    outer loop
      vertex 19.644 3.44011 2
      vertex 18.4 2.22872 2
      vertex 19.2 3.61436 2
    endloop
  endfacet
  facet normal 0 0 -1
    outer loop
      vertex 21.322 4.09869 2
      vertex 23.2 5 2
      vertex 21.6 2.22872 2
    endloop
  endfacet
  facet normal 0 0 -1
    outer loop
      vertex 21.5289 5.47161 2
      vertex 23.2 5 2
      vertex 21.6 5 2
    endloop
  endfacet
  facet normal 0 0 -1
    outer loop
      vertex 21.322 5.90131 2
      vertex 23.2 5 2
      vertex 21.5289 5.47161 2
    endloop
  endfacet
  facet normal 0 0 -1
    outer loop
      vertex 23.2 5 2
      vertex 21.322 5.90131 2
      vertex 21.6 7.77128 2
    endloop
  endfacet
  facet normal 0 0 -1
    outer loop
      vertex 20.9976 6.25093 2
      vertex 21.6 7.77128 2
      vertex 21.322 5.90131 2
    endloop
  endfacet
  facet normal 0 0 -1
    outer loop
      vertex 20.5845 6.4894 2
      vertex 21.6 7.77128 2
      vertex 20.9976 6.25093 2
    endloop
  endfacet
  facet normal 0 0 -1
    outer loop
      vertex 20.1196 6.59553 2
      vertex 21.6 7.77128 2
      vertex 20.5845 6.4894 2
    endloop
  endfacet
  facet normal 0 0 -1
    outer loop
      vertex 18.4 7.77128 2
      vertex 20.1196 6.59553 2
      vertex 19.644 6.55988 2
    endloop
  endfacet
  facet normal 0 0 -1
    outer loop
      vertex 18.4 7.77128 2
      vertex 19.644 6.55988 2
      vertex 19.2 6.38564 2
    endloop
  endfacet
  facet normal 0 0 -1
    outer loop
      vertex 20.1196 6.59553 2
      vertex 18.4 7.77128 2
      vertex 21.6 7.77128 2
    endloop
  endfacet
  facet normal 0 0 -1
    outer loop
      vertex 18.8271 6.08828 2
      vertex 18.4 7.77128 2
      vertex 19.2 6.38564 2
    endloop
  endfacet
  facet normal 0 0 -1
    outer loop
      vertex 18.5584 5.69421 2
      vertex 18.4 7.77128 2
      vertex 18.8271 6.08828 2
    endloop
  endfacet
  facet normal 0 0 -1
    outer loop
      vertex 16.8 5 2
      vertex 18.5584 5.69421 2
      vertex 18.4179 5.23847 2
    endloop
  endfacet
  facet normal 0 0 -1
    outer loop
      vertex 18.4179 4.76153 2
      vertex 16.8 5 2
      vertex 18.4179 5.23847 2
    endloop
  endfacet
  facet normal -0 0 -1
    outer loop
      vertex 18.5584 5.69421 2
      vertex 16.8 5 2
      vertex 18.4 7.77128 2
    endloop
  endfacet
  facet normal -0.866025 0.5 0
    outer loop
      vertex 21.6 2.22872 0
      vertex 23.2 5 2
      vertex 23.2 5 0
    endloop
  endfacet
  facet normal -0.866025 0.5 0
    outer loop
      vertex 23.2 5 2
      vertex 21.6 2.22872 0
      vertex 21.6 2.22872 2
    endloop
  endfacet
  facet normal 0 1 -0
    outer loop
      vertex 21.6 2.22872 0
      vertex 18.4 2.22872 2
      vertex 21.6 2.22872 2
    endloop
  endfacet
  facet normal 0 1 0
    outer loop
      vertex 18.4 2.22872 2
      vertex 21.6 2.22872 0
      vertex 18.4 2.22872 0
    endloop
  endfacet
  facet normal -0.988831 0 -0.149041
    outer loop
      vertex 6.6 2 5
      vertex 6.52892 10 5.47161
      vertex 6.6 10 5
    endloop
  endfacet
  facet normal -0.988831 -0 -0.149041
    outer loop
      vertex 6.52892 10 5.47161
      vertex 6.6 2 5
      vertex 6.52892 2 5.47161
    endloop
  endfacet
  facet normal -0.900968 0 -0.433885
    outer loop
      vertex 6.52892 2 5.47161
      vertex 6.32198 10 5.90131
      vertex 6.52892 10 5.47161
    endloop
  endfacet
  facet normal -0.900968 -0 -0.433885
    outer loop
      vertex 6.32198 10 5.90131
      vertex 6.52892 2 5.47161
      vertex 6.32198 2 5.90131
    endloop
  endfacet
  facet normal 1 0 0
    outer loop
      vertex 3.41787 2 5
      vertex 3.41787 10 5.23847
      vertex 3.41787 2 5.23847
    endloop
  endfacet
  facet normal 1 0 0
    outer loop
      vertex 3.41787 10 5.23847
      vertex 3.41787 2 5
      vertex 3.41787 10 4.76153
    endloop
  endfacet
  facet normal 1 0 0
    outer loop
      vertex 3.41787 10 4.76153
      vertex 3.41787 2 5
      vertex 3.41787 2 4.76153
    endloop
  endfacet
  facet normal 0.0747305 0 -0.997204
    outer loop
      vertex 4.64397 2 6.55988
      vertex 5.11957 10 6.59553
      vertex 5.11957 2 6.59553
    endloop
  endfacet
  facet normal 0.0747305 0 -0.997204
    outer loop
      vertex 5.11957 10 6.59553
      vertex 4.64397 2 6.55988
      vertex 4.64397 10 6.55988
    endloop
  endfacet
  facet normal -0.733052 0 -0.680173
    outer loop
      vertex 6.32198 2 5.90131
      vertex 5.99758 10 6.25093
      vertex 6.32198 10 5.90131
    endloop
  endfacet
  facet normal -0.733052 -0 -0.680173
    outer loop
      vertex 5.99758 10 6.25093
      vertex 6.32198 2 5.90131
      vertex 5.99758 2 6.25093
    endloop
  endfacet
  facet normal 0.365341 0 -0.930874
    outer loop
      vertex 4.2 2 6.38564
      vertex 4.64397 10 6.55988
      vertex 4.64397 2 6.55988
    endloop
  endfacet
  facet normal 0.365341 0 -0.930874
    outer loop
      vertex 4.64397 10 6.55988
      vertex 4.2 2 6.38564
      vertex 4.2 10 6.38564
    endloop
  endfacet
  facet normal -0.222522 0 0.974928
    outer loop
      vertex 5.11957 10 3.40447
      vertex 5.58455 2 3.5106
      vertex 5.58455 10 3.5106
    endloop
  endfacet
  facet normal -0.222522 0 0.974928
    outer loop
      vertex 5.58455 2 3.5106
      vertex 5.11957 10 3.40447
      vertex 5.11957 2 3.40447
    endloop
  endfacet
  facet normal 0.955573 -0 0.294755
    outer loop
      vertex 3.41787 2 4.76153
      vertex 3.55845 10 4.30579
      vertex 3.41787 10 4.76153
    endloop
  endfacet
  facet normal 0.955573 0 0.294755
    outer loop
      vertex 3.55845 10 4.30579
      vertex 3.41787 2 4.76153
      vertex 3.55845 2 4.30579
    endloop
  endfacet
  facet normal -0.222522 0 -0.974928
    outer loop
      vertex 5.11957 2 6.59553
      vertex 5.58455 10 6.4894
      vertex 5.58455 2 6.4894
    endloop
  endfacet
  facet normal -0.222522 0 -0.974928
    outer loop
      vertex 5.58455 10 6.4894
      vertex 5.11957 2 6.59553
      vertex 5.11957 10 6.59553
    endloop
  endfacet
  facet normal -0.499999 0 -0.866026
    outer loop
      vertex 5.58455 2 6.4894
      vertex 5.99758 10 6.25093
      vertex 5.99758 2 6.25093
    endloop
  endfacet
  facet normal -0.499999 0 -0.866026
    outer loop
      vertex 5.99758 10 6.25093
      vertex 5.58455 2 6.4894
      vertex 5.58455 10 6.4894
    endloop
  endfacet
  facet normal 0.955573 0 -0.294755
    outer loop
      vertex 3.55845 2 5.69421
      vertex 3.41787 10 5.23847
      vertex 3.55845 10 5.69421
    endloop
  endfacet
  facet normal 0.955573 0 -0.294755
    outer loop
      vertex 3.41787 10 5.23847
      vertex 3.55845 2 5.69421
      vertex 3.41787 2 5.23847
    endloop
  endfacet
  facet normal -0.733052 0 0.680173
    outer loop
      vertex 5.99758 10 3.74907
      vertex 6.32198 2 4.09869
      vertex 6.32198 10 4.09869
    endloop
  endfacet
  facet normal -0.733052 0 0.680173
    outer loop
      vertex 6.32198 2 4.09869
      vertex 5.99758 10 3.74907
      vertex 5.99758 2 3.74907
    endloop
  endfacet
  facet normal -0.900968 0 0.433885
    outer loop
      vertex 6.32198 10 4.09869
      vertex 6.52892 2 4.52839
      vertex 6.52892 10 4.52839
    endloop
  endfacet
  facet normal -0.900968 0 0.433885
    outer loop
      vertex 6.52892 2 4.52839
      vertex 6.32198 10 4.09869
      vertex 6.32198 2 4.09869
    endloop
  endfacet
  facet normal -0.988831 0 0.149041
    outer loop
      vertex 6.52892 10 4.52839
      vertex 6.6 2 5
      vertex 6.6 10 5
    endloop
  endfacet
  facet normal -0.988831 0 0.149041
    outer loop
      vertex 6.6 2 5
      vertex 6.52892 10 4.52839
      vertex 6.52892 2 4.52839
    endloop
  endfacet
  facet normal 0.365341 0 0.930874
    outer loop
      vertex 4.2 10 3.61436
      vertex 4.64397 2 3.44011
      vertex 4.64397 10 3.44011
    endloop
  endfacet
  facet normal 0.365341 0 0.930874
    outer loop
      vertex 4.64397 2 3.44011
      vertex 4.2 10 3.61436
      vertex 4.2 2 3.61436
    endloop
  endfacet
  facet normal 0.0747305 0 0.997204
    outer loop
      vertex 4.64397 10 3.44011
      vertex 5.11957 2 3.40447
      vertex 5.11957 10 3.40447
    endloop
  endfacet
  facet normal 0.0747305 0 0.997204
    outer loop
      vertex 5.11957 2 3.40447
      vertex 4.64397 10 3.44011
      vertex 4.64397 2 3.44011
    endloop
  endfacet
  facet normal 0.62349 0 -0.781831
    outer loop
      vertex 3.82712 2 6.08828
      vertex 4.2 10 6.38564
      vertex 4.2 2 6.38564
    endloop
  endfacet
  facet normal 0.62349 0 -0.781831
    outer loop
      vertex 4.2 10 6.38564
      vertex 3.82712 2 6.08828
      vertex 3.82712 10 6.08828
    endloop
  endfacet
  facet normal 0.826239 0 -0.56332
    outer loop
      vertex 3.82712 2 6.08828
      vertex 3.55845 10 5.69421
      vertex 3.82712 10 6.08828
    endloop
  endfacet
  facet normal 0.826239 0 -0.56332
    outer loop
      vertex 3.55845 10 5.69421
      vertex 3.82712 2 6.08828
      vertex 3.55845 2 5.69421
    endloop
  endfacet
  facet normal -0.499999 0 0.866026
    outer loop
      vertex 5.58455 10 3.5106
      vertex 5.99758 2 3.74907
      vertex 5.99758 10 3.74907
    endloop
  endfacet
  facet normal -0.499999 0 0.866026
    outer loop
      vertex 5.99758 2 3.74907
      vertex 5.58455 10 3.5106
      vertex 5.58455 2 3.5106
    endloop
  endfacet
  facet normal 0.826239 -0 0.56332
    outer loop
      vertex 3.55845 2 4.30579
      vertex 3.82712 10 3.91172
      vertex 3.55845 10 4.30579
    endloop
  endfacet
  facet normal 0.826239 0 0.56332
    outer loop
      vertex 3.82712 10 3.91172
      vertex 3.55845 2 4.30579
      vertex 3.82712 2 3.91172
    endloop
  endfacet
  facet normal 0.62349 0 0.781831
    outer loop
      vertex 3.82712 10 3.91172
      vertex 4.2 2 3.61436
      vertex 4.2 10 3.61436
    endloop
  endfacet
  facet normal 0.62349 0 0.781831
    outer loop
      vertex 4.2 2 3.61436
      vertex 3.82712 10 3.91172
      vertex 3.82712 2 3.91172
    endloop
  endfacet
  facet normal -0.988831 0 -0.149041
    outer loop
      vertex 16.6 2 5
      vertex 16.5289 10 5.47161
      vertex 16.6 10 5
    endloop
  endfacet
  facet normal -0.988831 -0 -0.149041
    outer loop
      vertex 16.5289 10 5.47161
      vertex 16.6 2 5
      vertex 16.5289 2 5.47161
    endloop
  endfacet
  facet normal -0.900969 0 -0.433883
    outer loop
      vertex 16.5289 2 5.47161
      vertex 16.322 10 5.90131
      vertex 16.5289 10 5.47161
    endloop
  endfacet
  facet normal -0.900969 -0 -0.433883
    outer loop
      vertex 16.322 10 5.90131
      vertex 16.5289 2 5.47161
      vertex 16.322 2 5.90131
    endloop
  endfacet
  facet normal 1 0 0
    outer loop
      vertex 13.4179 2 5
      vertex 13.4179 10 5.23847
      vertex 13.4179 2 5.23847
    endloop
  endfacet
  facet normal 1 0 0
    outer loop
      vertex 13.4179 10 5.23847
      vertex 13.4179 2 5
      vertex 13.4179 10 4.76153
    endloop
  endfacet
  facet normal 1 0 0
    outer loop
      vertex 13.4179 10 4.76153
      vertex 13.4179 2 5
      vertex 13.4179 2 4.76153
    endloop
  endfacet
  facet normal 0.0747305 0 -0.997204
    outer loop
      vertex 14.644 2 6.55988
      vertex 15.1196 10 6.59553
      vertex 15.1196 2 6.59553
    endloop
  endfacet
  facet normal 0.0747305 0 -0.997204
    outer loop
      vertex 15.1196 10 6.59553
      vertex 14.644 2 6.55988
      vertex 14.644 10 6.55988
    endloop
  endfacet
  facet normal -0.733052 0 -0.680173
    outer loop
      vertex 16.322 2 5.90131
      vertex 15.9976 10 6.25093
      vertex 16.322 10 5.90131
    endloop
  endfacet
  facet normal -0.733052 -0 -0.680173
    outer loop
      vertex 15.9976 10 6.25093
      vertex 16.322 2 5.90131
      vertex 15.9976 2 6.25093
    endloop
  endfacet
  facet normal 0.365341 0 -0.930874
    outer loop
      vertex 14.2 2 6.38564
      vertex 14.644 10 6.55988
      vertex 14.644 2 6.55988
    endloop
  endfacet
  facet normal 0.365341 0 -0.930874
    outer loop
      vertex 14.644 10 6.55988
      vertex 14.2 2 6.38564
      vertex 14.2 10 6.38564
    endloop
  endfacet
  facet normal -0.222522 0 0.974928
    outer loop
      vertex 15.1196 10 3.40447
      vertex 15.5845 2 3.5106
      vertex 15.5845 10 3.5106
    endloop
  endfacet
  facet normal -0.222522 0 0.974928
    outer loop
      vertex 15.5845 2 3.5106
      vertex 15.1196 10 3.40447
      vertex 15.1196 2 3.40447
    endloop
  endfacet
  facet normal 0.955573 -0 0.294755
    outer loop
      vertex 13.4179 2 4.76153
      vertex 13.5584 10 4.30579
      vertex 13.4179 10 4.76153
    endloop
  endfacet
  facet normal 0.955573 0 0.294755
    outer loop
      vertex 13.5584 10 4.30579
      vertex 13.4179 2 4.76153
      vertex 13.5584 2 4.30579
    endloop
  endfacet
  facet normal -0.222522 0 -0.974928
    outer loop
      vertex 15.1196 2 6.59553
      vertex 15.5845 10 6.4894
      vertex 15.5845 2 6.4894
    endloop
  endfacet
  facet normal -0.222522 0 -0.974928
    outer loop
      vertex 15.5845 10 6.4894
      vertex 15.1196 2 6.59553
      vertex 15.1196 10 6.59553
    endloop
  endfacet
  facet normal -0.499999 0 -0.866026
    outer loop
      vertex 15.5845 2 6.4894
      vertex 15.9976 10 6.25093
      vertex 15.9976 2 6.25093
    endloop
  endfacet
  facet normal -0.499999 0 -0.866026
    outer loop
      vertex 15.9976 10 6.25093
      vertex 15.5845 2 6.4894
      vertex 15.5845 10 6.4894
    endloop
  endfacet
  facet normal 0.955573 0 -0.294755
    outer loop
      vertex 13.5584 2 5.69421
      vertex 13.4179 10 5.23847
      vertex 13.5584 10 5.69421
    endloop
  endfacet
  facet normal 0.955573 0 -0.294755
    outer loop
      vertex 13.4179 10 5.23847
      vertex 13.5584 2 5.69421
      vertex 13.4179 2 5.23847
    endloop
  endfacet
  facet normal -0.733052 0 0.680173
    outer loop
      vertex 15.9976 10 3.74907
      vertex 16.322 2 4.09869
      vertex 16.322 10 4.09869
    endloop
  endfacet
  facet normal -0.733052 0 0.680173
    outer loop
      vertex 16.322 2 4.09869
      vertex 15.9976 10 3.74907
      vertex 15.9976 2 3.74907
    endloop
  endfacet
  facet normal -0.900969 0 0.433883
    outer loop
      vertex 16.322 10 4.09869
      vertex 16.5289 2 4.52839
      vertex 16.5289 10 4.52839
    endloop
  endfacet
  facet normal -0.900969 0 0.433883
    outer loop
      vertex 16.5289 2 4.52839
      vertex 16.322 10 4.09869
      vertex 16.322 2 4.09869
    endloop
  endfacet
  facet normal -0.988831 0 0.149041
    outer loop
      vertex 16.5289 10 4.52839
      vertex 16.6 2 5
      vertex 16.6 10 5
    endloop
  endfacet
  facet normal -0.988831 0 0.149041
    outer loop
      vertex 16.6 2 5
      vertex 16.5289 10 4.52839
      vertex 16.5289 2 4.52839
    endloop
  endfacet
  facet normal 0.365341 0 0.930874
    outer loop
      vertex 14.2 10 3.61436
      vertex 14.644 2 3.44011
      vertex 14.644 10 3.44011
    endloop
  endfacet
  facet normal 0.365341 0 0.930874
    outer loop
      vertex 14.644 2 3.44011
      vertex 14.2 10 3.61436
      vertex 14.2 2 3.61436
    endloop
  endfacet
  facet normal 0.0747305 0 0.997204
    outer loop
      vertex 14.644 10 3.44011
      vertex 15.1196 2 3.40447
      vertex 15.1196 10 3.40447
    endloop
  endfacet
  facet normal 0.0747305 0 0.997204
    outer loop
      vertex 15.1196 2 3.40447
      vertex 14.644 10 3.44011
      vertex 14.644 2 3.44011
    endloop
  endfacet
  facet normal 0.62349 0 -0.781831
    outer loop
      vertex 13.8271 2 6.08828
      vertex 14.2 10 6.38564
      vertex 14.2 2 6.38564
    endloop
  endfacet
  facet normal 0.62349 0 -0.781831
    outer loop
      vertex 14.2 10 6.38564
      vertex 13.8271 2 6.08828
      vertex 13.8271 10 6.08828
    endloop
  endfacet
  facet normal 0.826239 0 -0.56332
    outer loop
      vertex 13.8271 2 6.08828
      vertex 13.5584 10 5.69421
      vertex 13.8271 10 6.08828
    endloop
  endfacet
  facet normal 0.826239 0 -0.56332
    outer loop
      vertex 13.5584 10 5.69421
      vertex 13.8271 2 6.08828
      vertex 13.5584 2 5.69421
    endloop
  endfacet
  facet normal -0.499999 0 0.866026
    outer loop
      vertex 15.5845 10 3.5106
      vertex 15.9976 2 3.74907
      vertex 15.9976 10 3.74907
    endloop
  endfacet
  facet normal -0.499999 0 0.866026
    outer loop
      vertex 15.9976 2 3.74907
      vertex 15.5845 10 3.5106
      vertex 15.5845 2 3.5106
    endloop
  endfacet
  facet normal 0.826239 -0 0.56332
    outer loop
      vertex 13.5584 2 4.30579
      vertex 13.8271 10 3.91172
      vertex 13.5584 10 4.30579
    endloop
  endfacet
  facet normal 0.826239 0 0.56332
    outer loop
      vertex 13.8271 10 3.91172
      vertex 13.5584 2 4.30579
      vertex 13.8271 2 3.91172
    endloop
  endfacet
  facet normal 0.62349 0 0.781831
    outer loop
      vertex 13.8271 10 3.91172
      vertex 14.2 2 3.61436
      vertex 14.2 10 3.61436
    endloop
  endfacet
  facet normal 0.62349 0 0.781831
    outer loop
      vertex 14.2 2 3.61436
      vertex 13.8271 10 3.91172
      vertex 13.8271 2 3.91172
    endloop
  endfacet
  facet normal -0.988831 -0.149041 0
    outer loop
      vertex 11.6 5 2
      vertex 11.5289 5.47161 10
      vertex 11.5289 5.47161 2
    endloop
  endfacet
  facet normal -0.988831 -0.149041 0
    outer loop
      vertex 11.5289 5.47161 10
      vertex 11.6 5 2
      vertex 11.6 5 10
    endloop
  endfacet
  facet normal 1 -0 0
    outer loop
      vertex 8.41787 4.76153 10
      vertex 8.41787 5.23847 2
      vertex 8.41787 5.23847 10
    endloop
  endfacet
  facet normal 1 0 0
    outer loop
      vertex 8.41787 5.23847 2
      vertex 8.41787 4.76153 10
      vertex 8.41787 4.76153 2
    endloop
  endfacet
  facet normal 0.0747305 -0.997204 0
    outer loop
      vertex 9.64397 6.55988 2
      vertex 10.1196 6.59553 10
      vertex 9.64397 6.55988 10
    endloop
  endfacet
  facet normal 0.0747305 -0.997204 0
    outer loop
      vertex 10.1196 6.59553 10
      vertex 9.64397 6.55988 2
      vertex 10.1196 6.59553 2
    endloop
  endfacet
  facet normal 0.62349 0.781831 -0
    outer loop
      vertex 9.2 3.61436 2
      vertex 8.82712 3.91172 10
      vertex 9.2 3.61436 10
    endloop
  endfacet
  facet normal 0.62349 0.781831 0
    outer loop
      vertex 8.82712 3.91172 10
      vertex 9.2 3.61436 2
      vertex 8.82712 3.91172 2
    endloop
  endfacet
  facet normal -0.733052 -0.680173 0
    outer loop
      vertex 11.322 5.90131 2
      vertex 10.9976 6.25093 10
      vertex 10.9976 6.25093 2
    endloop
  endfacet
  facet normal -0.733052 -0.680173 0
    outer loop
      vertex 10.9976 6.25093 10
      vertex 11.322 5.90131 2
      vertex 11.322 5.90131 10
    endloop
  endfacet
  facet normal -0.900968 -0.433885 0
    outer loop
      vertex 11.5289 5.47161 2
      vertex 11.322 5.90131 10
      vertex 11.322 5.90131 2
    endloop
  endfacet
  facet normal -0.900968 -0.433885 0
    outer loop
      vertex 11.322 5.90131 10
      vertex 11.5289 5.47161 2
      vertex 11.5289 5.47161 10
    endloop
  endfacet
  facet normal 0.826239 -0.56332 0
    outer loop
      vertex 8.55845 5.69421 10
      vertex 8.82712 6.08828 2
      vertex 8.82712 6.08828 10
    endloop
  endfacet
  facet normal 0.826239 -0.56332 0
    outer loop
      vertex 8.82712 6.08828 2
      vertex 8.55845 5.69421 10
      vertex 8.55845 5.69421 2
    endloop
  endfacet
  facet normal 0.955573 -0.294755 0
    outer loop
      vertex 8.41787 5.23847 10
      vertex 8.55845 5.69421 2
      vertex 8.55845 5.69421 10
    endloop
  endfacet
  facet normal 0.955573 -0.294755 0
    outer loop
      vertex 8.55845 5.69421 2
      vertex 8.41787 5.23847 10
      vertex 8.41787 5.23847 2
    endloop
  endfacet
  facet normal 0.365341 -0.930874 0
    outer loop
      vertex 9.2 6.38564 2
      vertex 9.64397 6.55988 10
      vertex 9.2 6.38564 10
    endloop
  endfacet
  facet normal 0.365341 -0.930874 0
    outer loop
      vertex 9.64397 6.55988 10
      vertex 9.2 6.38564 2
      vertex 9.64397 6.55988 2
    endloop
  endfacet
  facet normal -0.900968 0.433885 0
    outer loop
      vertex 11.322 4.09869 2
      vertex 11.5289 4.52839 10
      vertex 11.5289 4.52839 2
    endloop
  endfacet
  facet normal -0.900968 0.433885 0
    outer loop
      vertex 11.5289 4.52839 10
      vertex 11.322 4.09869 2
      vertex 11.322 4.09869 10
    endloop
  endfacet
  facet normal 0.365341 0.930874 -0
    outer loop
      vertex 9.64397 3.44011 2
      vertex 9.2 3.61436 10
      vertex 9.64397 3.44011 10
    endloop
  endfacet
  facet normal 0.365341 0.930874 0
    outer loop
      vertex 9.2 3.61436 10
      vertex 9.64397 3.44011 2
      vertex 9.2 3.61436 2
    endloop
  endfacet
  facet normal 0.955573 0.294755 0
    outer loop
      vertex 8.55845 4.30579 10
      vertex 8.41787 4.76153 2
      vertex 8.41787 4.76153 10
    endloop
  endfacet
  facet normal 0.955573 0.294755 0
    outer loop
      vertex 8.41787 4.76153 2
      vertex 8.55845 4.30579 10
      vertex 8.55845 4.30579 2
    endloop
  endfacet
  facet normal -0.222522 -0.974928 0
    outer loop
      vertex 10.1196 6.59553 2
      vertex 10.5845 6.4894 10
      vertex 10.1196 6.59553 10
    endloop
  endfacet
  facet normal -0.222522 -0.974928 -0
    outer loop
      vertex 10.5845 6.4894 10
      vertex 10.1196 6.59553 2
      vertex 10.5845 6.4894 2
    endloop
  endfacet
  facet normal -0.499999 -0.866026 0
    outer loop
      vertex 10.5845 6.4894 2
      vertex 10.9976 6.25093 10
      vertex 10.5845 6.4894 10
    endloop
  endfacet
  facet normal -0.499999 -0.866026 -0
    outer loop
      vertex 10.9976 6.25093 10
      vertex 10.5845 6.4894 2
      vertex 10.9976 6.25093 2
    endloop
  endfacet
  facet normal 0.62349 -0.781831 0
    outer loop
      vertex 8.82712 6.08828 2
      vertex 9.2 6.38564 10
      vertex 8.82712 6.08828 10
    endloop
  endfacet
  facet normal 0.62349 -0.781831 0
    outer loop
      vertex 9.2 6.38564 10
      vertex 8.82712 6.08828 2
      vertex 9.2 6.38564 2
    endloop
  endfacet
  facet normal -0.988831 0.149041 0
    outer loop
      vertex 11.5289 4.52839 2
      vertex 11.6 5 10
      vertex 11.6 5 2
    endloop
  endfacet
  facet normal -0.988831 0.149041 0
    outer loop
      vertex 11.6 5 10
      vertex 11.5289 4.52839 2
      vertex 11.5289 4.52839 10
    endloop
  endfacet
  facet normal -0.222522 0.974928 0
    outer loop
      vertex 10.5845 3.5106 2
      vertex 10.1196 3.40447 10
      vertex 10.5845 3.5106 10
    endloop
  endfacet
  facet normal -0.222522 0.974928 0
    outer loop
      vertex 10.1196 3.40447 10
      vertex 10.5845 3.5106 2
      vertex 10.1196 3.40447 2
    endloop
  endfacet
  facet normal -0.733052 0.680173 0
    outer loop
      vertex 10.9976 3.74907 2
      vertex 11.322 4.09869 10
      vertex 11.322 4.09869 2
    endloop
  endfacet
  facet normal -0.733052 0.680173 0
    outer loop
      vertex 11.322 4.09869 10
      vertex 10.9976 3.74907 2
      vertex 10.9976 3.74907 10
    endloop
  endfacet
  facet normal 0.0747305 0.997204 -0
    outer loop
      vertex 10.1196 3.40447 2
      vertex 9.64397 3.44011 10
      vertex 10.1196 3.40447 10
    endloop
  endfacet
  facet normal 0.0747305 0.997204 0
    outer loop
      vertex 9.64397 3.44011 10
      vertex 10.1196 3.40447 2
      vertex 9.64397 3.44011 2
    endloop
  endfacet
  facet normal 0.826239 0.56332 0
    outer loop
      vertex 8.82712 3.91172 10
      vertex 8.55845 4.30579 2
      vertex 8.55845 4.30579 10
    endloop
  endfacet
  facet normal 0.826239 0.56332 0
    outer loop
      vertex 8.55845 4.30579 2
      vertex 8.82712 3.91172 10
      vertex 8.82712 3.91172 2
    endloop
  endfacet
  facet normal -0.499999 0.866026 0
    outer loop
      vertex 10.9976 3.74907 2
      vertex 10.5845 3.5106 10
      vertex 10.9976 3.74907 10
    endloop
  endfacet
  facet normal -0.499999 0.866026 0
    outer loop
      vertex 10.5845 3.5106 10
      vertex 10.9976 3.74907 2
      vertex 10.5845 3.5106 2
    endloop
  endfacet
  facet normal 1 -0 0
    outer loop
      vertex 18.4179 4.76153 10
      vertex 18.4179 5.23847 2
      vertex 18.4179 5.23847 10
    endloop
  endfacet
  facet normal 1 0 0
    outer loop
      vertex 18.4179 5.23847 2
      vertex 18.4179 4.76153 10
      vertex 18.4179 4.76153 2
    endloop
  endfacet
  facet normal -0.499999 -0.866026 0
    outer loop
      vertex 20.5845 6.4894 2
      vertex 20.9976 6.25093 10
      vertex 20.5845 6.4894 10
    endloop
  endfacet
  facet normal -0.499999 -0.866026 -0
    outer loop
      vertex 20.9976 6.25093 10
      vertex 20.5845 6.4894 2
      vertex 20.9976 6.25093 2
    endloop
  endfacet
  facet normal -0.988831 0.149041 0
    outer loop
      vertex 21.5289 4.52839 2
      vertex 21.6 5 10
      vertex 21.6 5 2
    endloop
  endfacet
  facet normal -0.988831 0.149041 0
    outer loop
      vertex 21.6 5 10
      vertex 21.5289 4.52839 2
      vertex 21.5289 4.52839 10
    endloop
  endfacet
  facet normal 0.0747307 0.997204 -0
    outer loop
      vertex 20.1196 3.40447 2
      vertex 19.644 3.44011 10
      vertex 20.1196 3.40447 10
    endloop
  endfacet
  facet normal 0.0747307 0.997204 0
    outer loop
      vertex 19.644 3.44011 10
      vertex 20.1196 3.40447 2
      vertex 19.644 3.44011 2
    endloop
  endfacet
  facet normal -0.733052 -0.680173 0
    outer loop
      vertex 21.322 5.90131 2
      vertex 20.9976 6.25093 10
      vertex 20.9976 6.25093 2
    endloop
  endfacet
  facet normal -0.733052 -0.680173 0
    outer loop
      vertex 20.9976 6.25093 10
      vertex 21.322 5.90131 2
      vertex 21.322 5.90131 10
    endloop
  endfacet
  facet normal -0.900969 -0.433883 0
    outer loop
      vertex 21.5289 5.47161 2
      vertex 21.322 5.90131 10
      vertex 21.322 5.90131 2
    endloop
  endfacet
  facet normal -0.900969 -0.433883 0
    outer loop
      vertex 21.322 5.90131 10
      vertex 21.5289 5.47161 2
      vertex 21.5289 5.47161 10
    endloop
  endfacet
  facet normal 0.0747307 -0.997204 0
    outer loop
      vertex 19.644 6.55988 2
      vertex 20.1196 6.59553 10
      vertex 19.644 6.55988 10
    endloop
  endfacet
  facet normal 0.0747307 -0.997204 0
    outer loop
      vertex 20.1196 6.59553 10
      vertex 19.644 6.55988 2
      vertex 20.1196 6.59553 2
    endloop
  endfacet
  facet normal 0.365341 -0.930874 0
    outer loop
      vertex 19.2 6.38564 2
      vertex 19.644 6.55988 10
      vertex 19.2 6.38564 10
    endloop
  endfacet
  facet normal 0.365341 -0.930874 0
    outer loop
      vertex 19.644 6.55988 10
      vertex 19.2 6.38564 2
      vertex 19.644 6.55988 2
    endloop
  endfacet
  facet normal 0.955573 -0.294755 0
    outer loop
      vertex 18.4179 5.23847 10
      vertex 18.5584 5.69421 2
      vertex 18.5584 5.69421 10
    endloop
  endfacet
  facet normal 0.955573 -0.294755 0
    outer loop
      vertex 18.5584 5.69421 2
      vertex 18.4179 5.23847 10
      vertex 18.4179 5.23847 2
    endloop
  endfacet
  facet normal -0.733052 0.680173 0
    outer loop
      vertex 20.9976 3.74907 2
      vertex 21.322 4.09869 10
      vertex 21.322 4.09869 2
    endloop
  endfacet
  facet normal -0.733052 0.680173 0
    outer loop
      vertex 21.322 4.09869 10
      vertex 20.9976 3.74907 2
      vertex 20.9976 3.74907 10
    endloop
  endfacet
  facet normal -0.900969 0.433883 0
    outer loop
      vertex 21.322 4.09869 2
      vertex 21.5289 4.52839 10
      vertex 21.5289 4.52839 2
    endloop
  endfacet
  facet normal -0.900969 0.433883 0
    outer loop
      vertex 21.5289 4.52839 10
      vertex 21.322 4.09869 2
      vertex 21.322 4.09869 10
    endloop
  endfacet
  facet normal 0.955573 0.294755 0
    outer loop
      vertex 18.5584 4.30579 10
      vertex 18.4179 4.76153 2
      vertex 18.4179 4.76153 10
    endloop
  endfacet
  facet normal 0.955573 0.294755 0
    outer loop
      vertex 18.4179 4.76153 2
      vertex 18.5584 4.30579 10
      vertex 18.5584 4.30579 2
    endloop
  endfacet
  facet normal 0.365341 0.930874 -0
    outer loop
      vertex 19.644 3.44011 2
      vertex 19.2 3.61436 10
      vertex 19.644 3.44011 10
    endloop
  endfacet
  facet normal 0.365341 0.930874 0
    outer loop
      vertex 19.2 3.61436 10
      vertex 19.644 3.44011 2
      vertex 19.2 3.61436 2
    endloop
  endfacet
  facet normal -0.222522 -0.974928 0
    outer loop
      vertex 20.1196 6.59553 2
      vertex 20.5845 6.4894 10
      vertex 20.1196 6.59553 10
    endloop
  endfacet
  facet normal -0.222522 -0.974928 -0
    outer loop
      vertex 20.5845 6.4894 10
      vertex 20.1196 6.59553 2
      vertex 20.5845 6.4894 2
    endloop
  endfacet
  facet normal 0.62349 -0.781831 0
    outer loop
      vertex 18.8271 6.08828 2
      vertex 19.2 6.38564 10
      vertex 18.8271 6.08828 10
    endloop
  endfacet
  facet normal 0.62349 -0.781831 0
    outer loop
      vertex 19.2 6.38564 10
      vertex 18.8271 6.08828 2
      vertex 19.2 6.38564 2
    endloop
  endfacet
  facet normal 0.826237 -0.563323 0
    outer loop
      vertex 18.5584 5.69421 10
      vertex 18.8271 6.08828 2
      vertex 18.8271 6.08828 10
    endloop
  endfacet
  facet normal 0.826237 -0.563323 0
    outer loop
      vertex 18.8271 6.08828 2
      vertex 18.5584 5.69421 10
      vertex 18.5584 5.69421 2
    endloop
  endfacet
  facet normal -0.988831 -0.149041 0
    outer loop
      vertex 21.6 5 2
      vertex 21.5289 5.47161 10
      vertex 21.5289 5.47161 2
    endloop
  endfacet
  facet normal -0.988831 -0.149041 0
    outer loop
      vertex 21.5289 5.47161 10
      vertex 21.6 5 2
      vertex 21.6 5 10
    endloop
  endfacet
  facet normal -0.222522 0.974928 0
    outer loop
      vertex 20.5845 3.5106 2
      vertex 20.1196 3.40447 10
      vertex 20.5845 3.5106 10
    endloop
  endfacet
  facet normal -0.222522 0.974928 0
    outer loop
      vertex 20.1196 3.40447 10
      vertex 20.5845 3.5106 2
      vertex 20.1196 3.40447 2
    endloop
  endfacet
  facet normal -0.499999 0.866026 0
    outer loop
      vertex 20.9976 3.74907 2
      vertex 20.5845 3.5106 10
      vertex 20.9976 3.74907 10
    endloop
  endfacet
  facet normal -0.499999 0.866026 0
    outer loop
      vertex 20.5845 3.5106 10
      vertex 20.9976 3.74907 2
      vertex 20.5845 3.5106 2
    endloop
  endfacet
  facet normal 0.826237 0.563323 0
    outer loop
      vertex 18.8271 3.91172 10
      vertex 18.5584 4.30579 2
      vertex 18.5584 4.30579 10
    endloop
  endfacet
  facet normal 0.826237 0.563323 0
    outer loop
      vertex 18.5584 4.30579 2
      vertex 18.8271 3.91172 10
      vertex 18.8271 3.91172 2
    endloop
  endfacet
  facet normal 0.62349 0.781831 -0
    outer loop
      vertex 19.2 3.61436 2
      vertex 18.8271 3.91172 10
      vertex 19.2 3.61436 10
    endloop
  endfacet
  facet normal 0.62349 0.781831 0
    outer loop
      vertex 18.8271 3.91172 10
      vertex 19.2 3.61436 2
      vertex 18.8271 3.91172 2
    endloop
  endfacet
endsolid OpenSCAD_Model
